# xmcd
#
# Track frame offsets:
#	150
#	15916
#	32158
#	50727
#	71053
#	87717
#	106176
#	123412
#	140129
#	157162
#
# Disc length: 2407 seconds
#
# Revision: 0
# Processed by: cddbd v1.5.2PL0 Copyright (c) Steve Scherf et al.
# Submitted via: EasyCDDAExtractor 2010.6.0.0
#
DISCID=8f09650a
DTITLE=Antonio De Jesus - Vivencias
DYEAR=1985
DGENRE=Ballad
TTITLE0=Tu Ausencia
TTITLE1=Volvere
TTITLE2=Dejame Ser
TTITLE3=Tu Amor Me Esta Matando
TTITLE4=Solo Mia
TTITLE5=Bailarina
TTITLE6=Quien, Dime Quien
TTITLE7=Ya No Te Recuerdo
TTITLE8=Ese Soy Yo
TTITLE9=Estoy Confundido
EXTD=
EXTT0=
EXTT1=
EXTT2=
EXTT3=
EXTT4=
EXTT5=
EXTT6=
EXTT7=
EXTT8=
EXTT9=
PLAYORDER=
